PathFileType	4	(X/Y/Z)	s03c0303.trc
DataRate	CameraRate	NumFrames	NumMarkers	Units	OrigDataRate	OrigDataStartFrame	OrigNumFrames
200	200	4	50	mm	200	1250	2000
Frame#	Time	racr			lacr			c7			jug			rlel			rdr			llel			ldr			s2			lic			ric			lasi			rasi			rpsi			lpsi			rgt			lgt			rth1			rth2			rth3			rth4			rlfc			rmfc			rsh1			rsh2			rsh3			rsh4			rlmal			rcal			rtoe			rmt5			rmt1			lth1			lth2			lth4			lth3			llfc			lmfc			lsh1			lsh2			lsh3			lsh4			llmal			lcal			ltoe			lmt1			lmt5			SBIKE			LBIKE			RBIKE			
		X1	Y1	Z1	X2	Y2	Z2	X3	Y3	Z3	X4	Y4	Z4	X5	Y5	Z5	X6	Y6	Z6	X7	Y7	Z7	X8	Y8	Z8	X9	Y9	Z9	X10	Y10	Z10	X11	Y11	Z11	X12	Y12	Z12	X13	Y13	Z13	X14	Y14	Z14	X15	Y15	Z15	X16	Y16	Z16	X17	Y17	Z17	X18	Y18	Z18	X19	Y19	Z19	X20	Y20	Z20	X21	Y21	Z21	X22	Y22	Z22	X23	Y23	Z23	X24	Y24	Z24	X25	Y25	Z25	X26	Y26	Z26	X27	Y27	Z27	X28	Y28	Z28	X29	Y29	Z29	X30	Y30	Z30	X31	Y31	Z31	X32	Y32	Z32	X33	Y33	Z33	X34	Y34	Z34	X35	Y35	Z35	X36	Y36	Z36	X37	Y37	Z37	X38	Y38	Z38	X39	Y39	Z39	X40	Y40	Z40	X41	Y41	Z41	X42	Y42	Z42	X43	Y43	Z43	X44	Y44	Z44	X45	Y45	Z45	X46	Y46	Z46	X47	Y47	Z47	X48	Y48	Z48	X49	Y49	Z49	X50	Y50	Z50	
1250	6.2500	771.866340	1446.528892	-90.653743	800.544578	1433.323233	-418.546482	745.614673	1529.023692	-264.061733	726.646378	1348.613876	-250.414468	658.436895	1197.345585	20.640987	768.021436	941.622158	-49.395720	681.558776	1191.447232	-530.089630	750.360585	924.099272	-432.058904	199.631221	1276.172934	-271.120728	391.955088	1267.055925	-440.970252	356.018768	1326.610114	-82.592371	400.631626	1202.580366	-387.320402	390.316721	1249.987077	-118.700146	227.204383	1331.259114	-235.105969	238.516058	1317.821855	-316.633831	310.044753	1232.001509	-55.803493	305.302492	1145.257902	-440.757127	417.049876	1120.585244	-15.714389	497.616911	1082.981409	-8.655841	548.548703	1014.270746	1.809448	519.776729	1106.353243	-27.555603	618.451094	900.239250	-4.114940	629.044918	872.311780	-130.337400	482.095338	802.248707	4.112487	421.903427	740.416380	-19.480911	337.793402	716.990411	-30.052487	441.518528	717.493072	-41.402495	225.262193	655.769852	-61.292462	153.997764	669.020386	-102.285429	347.559415	428.461451	-129.728433	264.457578	503.893096	-49.936032	285.352157	501.675915	-164.389460	321.369469	995.053207	-451.655070	351.185223	913.330143	-448.330016	387.409675	917.269055	-445.178849	336.008457	826.778556	-434.923949	368.270806	706.085967	-407.108521	364.284226	690.946642	-289.101404	292.015065	553.887943	-439.224506	285.448478	470.110341	-426.343582	235.256692	395.091454	-424.940476	317.419957	460.298935	-405.315827	183.668961	279.547623	-411.408504	113.410632	264.448732	-370.497673	388.704682	119.885607	-358.488597	302.691960	164.118370	-319.054381	273.539698	150.681809	-436.370550	-119.910001	1017.967028	-243.463464	-14.039656	80.447883	-437.514797	-14.141293	80.917702	-37.164977	
1251	6.2550	769.317589	1448.000137	-87.339968	800.881451	1435.455192	-414.925960	744.113837	1530.557912	-260.687094	725.979976	1350.038871	-247.663112	656.116484	1197.509395	21.188412	768.003077	942.413694	-49.242802	685.009351	1193.046422	-528.278433	750.980093	924.044259	-432.453413	199.380156	1276.313894	-274.525624	393.711836	1267.810871	-440.946454	352.943551	1327.648889	-83.663638	401.388266	1203.402683	-387.266701	388.049717	1251.608254	-119.034196	226.316597	1330.745046	-236.426319	237.575950	1319.066688	-318.676378	307.405068	1233.551700	-57.321122	305.690290	1145.963083	-441.982015	415.761235	1123.682633	-16.532226	496.955047	1087.399318	-8.961199	548.785410	1019.344308	1.631009	518.838515	1111.046900	-27.846550	621.598604	907.277855	-4.690874	634.118333	879.423117	-130.391002	487.734224	807.374212	3.620997	428.425787	744.530818	-20.069076	344.774701	719.763573	-30.699099	448.372628	721.904678	-41.999918	233.058560	656.445333	-61.652283	161.381840	668.496252	-102.515860	358.891543	431.353229	-129.999660	274.659780	505.396396	-50.342993	295.764563	503.324198	-164.409365	319.883332	995.870785	-452.860295	348.706345	913.742662	-449.601824	384.963895	917.245573	-446.211072	332.312472	827.403195	-436.420017	362.960931	706.324498	-408.220563	358.584455	691.191941	-289.869477	285.884699	554.836006	-440.516904	279.159514	471.060468	-427.915755	228.697268	396.239508	-426.451229	311.147354	461.110117	-407.001415	177.291553	280.617146	-413.053495	106.808927	267.604666	-372.873364	377.711836	114.877358	-355.641408	293.122359	162.843592	-319.277376	264.558609	149.275933	-436.543831	-120.018935	1017.939036	-243.601600	-14.049169	80.444255	-437.524083	-14.129966	80.952593	-37.174543	
1252	6.2600	766.937568	1449.315545	-84.035894	801.243350	1437.384294	-411.145774	742.659003	1532.166097	-257.219550	725.222170	1351.572816	-244.590056	653.701236	1197.644563	21.772922	768.031362	943.524280	-49.024535	688.196812	1194.554209	-526.369613	751.659633	924.013646	-432.779021	198.850434	1276.793843	-275.767769	394.843730	1268.748763	-440.990128	349.654651	1328.899665	-84.551399	401.853972	1204.212716	-387.567811	386.149696	1253.198099	-119.535602	224.841270	1331.349864	-239.111384	237.820609	1318.974323	-322.416658	304.866025	1235.296570	-58.684998	306.127962	1146.799861	-442.626396	414.437545	1126.934460	-17.332149	495.991733	1091.585057	-9.359666	548.664138	1024.153752	1.246556	517.676746	1115.528732	-28.173000	624.918137	914.029799	-5.726434	639.081186	886.288754	-130.590122	493.146684	812.225828	2.734588	435.007610	748.233982	-20.683063	351.733796	721.959194	-31.019933	455.063592	725.511672	-43.481066	240.620421	656.242530	-61.924448	168.655223	667.221798	-102.669926	370.294149	433.517466	-130.302408	284.821904	506.195736	-50.602527	305.814326	504.549138	-164.594106	318.623048	997.034266	-454.196598	346.552046	914.564189	-450.973944	382.797206	917.691701	-447.297473	329.207574	828.356916	-438.122293	358.395818	706.990599	-409.392820	353.513315	691.979164	-290.756045	280.471357	556.247669	-442.039623	273.345367	472.463409	-429.684391	222.544041	397.840956	-428.205494	305.275910	462.560540	-409.354310	171.109857	282.327092	-414.979242	100.407425	271.468217	-375.416831	367.070047	111.820105	-354.678793	283.532783	162.187045	-319.660388	255.502468	148.430575	-436.860050	-120.158292	1017.966949	-243.559880	-14.061817	80.452329	-437.513970	-14.150439	80.946702	-37.181510	
1253	6.2650	764.594897	1450.671228	-80.764278	801.460386	1439.256930	-407.437202	740.670401	1533.060521	-253.942124	725.328400	1352.270588	-241.735406	650.955370	1197.827667	22.462374	767.989634	944.497023	-48.433547	691.087931	1196.111896	-524.448671	752.305748	923.753964	-433.120977	197.343295	1278.063187	-278.299446	395.565098	1269.910230	-441.025543	346.283322	1330.247182	-85.180461	401.930812	1205.539666	-387.671724	384.726084	1254.897521	-119.572155	223.347844	1332.404733	-241.313565	236.611521	1321.291331	-324.784190	302.419137	1237.298722	-59.881893	306.287376	1147.994996	-443.526910	412.940656	1130.088234	-18.214153	494.871283	1095.534408	-9.828629	548.190149	1028.638758	0.653577	516.411380	1119.900679	-28.392564	627.425363	920.666252	-7.186807	643.530304	893.292666	-131.835333	498.295451	816.710788	1.696893	441.370154	751.509033	-21.471114	358.640220	723.723794	-30.994905	461.798966	729.143385	-44.319692	248.247221	655.369500	-62.055434	175.814853	665.029213	-102.633202	381.718932	435.150963	-130.676822	294.951864	506.337561	-50.789333	316.125341	504.991377	-164.816355	317.671705	998.581682	-455.404410	344.825382	915.798894	-452.302808	381.089289	918.705373	-448.363207	326.603924	829.777023	-439.940020	354.741172	707.995443	-410.628044	350.230478	692.550404	-291.506743	275.743360	558.119679	-443.614600	268.119449	474.361924	-431.582595	216.812371	400.019232	-430.196929	300.000167	463.905408	-410.699651	165.197132	284.474469	-417.039124	94.440246	276.005283	-377.526382	356.358835	109.395682	-354.190992	274.152925	162.097476	-320.187335	246.138267	148.019667	-437.179871	-120.241598	1017.929860	-243.557191	-14.085013	80.476181	-437.506778	-14.157005	80.910732	-37.164467	
